<?xml version="1.0" standalone="no"?>
<!DOCTYPE svg PUBLIC "-//W3C//DTD SVG 20010904//EN"
 "http://www.w3.org/TR/2001/REC-SVG-20010904/DTD/svg10.dtd">
<svg version="1.0" xmlns="http://www.w3.org/2000/svg"
 width="512.000000pt" height="512.000000pt" viewBox="0 0 512.000000 512.000000"
 preserveAspectRatio="xMidYMid meet">
<metadata>
Created by potrace 1.11, written by Peter Selinger 2001-2013
</metadata>
<g transform="translate(0.000000,512.000000) scale(0.100000,-0.100000)"
fill="#000000" stroke="none">
<path d="M0 2560 l0 -2560 2560 0 2560 0 0 2560 0 2560 -2560 0 -2560 0 0
-2560z m2640 1875 c25 -4 73 -18 107 -31 l61 -25 69 23 c56 19 89 23 188 23
104 -1 130 -5 193 -27 41 -15 98 -41 128 -60 107 -64 213 -191 252 -300 l17
-48 65 6 c272 26 510 -210 510 -506 0 -243 -162 -456 -384 -505 -63 -14 -214
-15 -1331 -13 -1407 4 -1297 -2 -1455 75 -89 43 -174 124 -216 204 -26 49 -29
64 -29 154 0 89 3 106 28 157 58 119 197 220 353 256 l79 19 34 59 c51 87 154
185 242 228 127 62 251 79 383 51 68 -14 70 -14 85 8 35 51 123 134 175 166
142 85 272 110 446 86z m-1477 -1929 c47 -17 107 -57 107 -72 0 -6 -16 -31
-36 -56 l-35 -46 -42 23 c-60 33 -99 39 -141 21 -27 -11 -36 -21 -36 -39 0
-34 22 -50 125 -92 150 -62 185 -102 185 -212 0 -71 -28 -122 -89 -164 -50
-33 -107 -43 -199 -37 -69 5 -166 43 -197 78 -14 16 -13 21 21 61 20 24 39 48
44 52 4 5 33 -6 64 -23 94 -53 196 -43 196 20 0 35 -14 46 -128 94 -98 42
-129 64 -159 114 -41 67 -24 181 34 234 10 9 39 26 63 37 53 24 164 28 223 7z
m1857 -7 c93 -32 140 -100 140 -204 0 -157 -87 -235 -262 -235 l-88 0 0 -110
0 -110 -75 0 -75 0 0 342 0 341 163 -6 c89 -3 178 -11 197 -18z m-1410 -324
l0 -335 -75 0 -75 0 0 335 0 335 75 0 75 0 0 -335z m452 150 c37 -99 69 -189
73 -200 4 -14 29 45 78 182 l72 203 83 0 82 0 0 -335 0 -335 -71 0 -71 0 4
213 3 212 -36 -95 c-111 -292 -103 -275 -140 -275 -33 0 -35 2 -68 85 -19 47
-50 128 -70 180 l-36 96 4 -208 3 -208 -71 0 -71 0 0 335 0 336 82 -3 83 -3
67 -180z m1428 -85 l0 -270 135 0 135 0 0 -65 0 -65 -210 0 -210 0 0 335 0
335 75 0 75 0 0 -270z m464 178 c19 -51 44 -118 54 -148 l19 -54 28 74 c15 41
40 107 55 145 l28 70 81 3 c44 2 81 0 81 -4 0 -3 -45 -103 -100 -221 l-100
-216 0 -113 0 -114 -75 0 -75 0 0 116 0 116 -96 206 c-53 114 -98 213 -101
220 -4 9 16 12 80 12 l85 0 36 -92z m-3110 -1040 c3 -13 13 -82 23 -155 10
-73 20 -133 24 -133 4 0 9 19 13 43 3 23 18 93 32 155 l26 112 49 0 c42 0 49
-3 54 -22 25 -110 54 -240 60 -273 7 -34 11 -18 31 120 13 88 23 163 24 168 0
4 25 7 55 7 52 0 55 -1 50 -22 -8 -36 -75 -420 -75 -430 0 -5 -32 -8 -72 -6
l-72 3 -17 80 c-9 44 -22 107 -29 140 l-13 60 -17 -85 c-10 -47 -23 -111 -29
-142 l-12 -58 -70 0 c-38 0 -69 1 -69 3 0 2 -18 100 -40 218 -22 117 -40 220
-40 227 0 8 17 12 54 12 47 0 54 -3 60 -22z m896 -23 l0 -45 -95 0 -95 0 0
-45 0 -45 80 0 80 0 0 -45 0 -45 -80 0 -80 0 0 -50 0 -50 100 0 100 0 0 -45 0
-45 -155 0 -155 0 0 230 0 230 150 0 150 0 0 -45z m455 -132 c31 -98 63 -198
71 -222 7 -25 14 -48 14 -53 0 -4 -26 -8 -58 -8 l-59 0 -12 55 -12 55 -68 0
-68 0 -12 -55 -12 -55 -59 0 -59 0 13 43 c7 23 40 126 72 230 l58 187 68 0 67
0 56 -177z m535 132 l0 -45 -65 0 -65 0 0 -185 0 -185 -55 0 -55 0 0 185 0
185 -60 0 -60 0 0 45 0 45 180 0 180 0 0 -45z m270 -45 l0 -90 75 0 75 0 0 90
0 90 55 0 55 0 0 -230 0 -230 -55 0 -55 0 0 95 0 95 -75 0 -75 0 0 -95 0 -95
-55 0 -55 0 0 230 0 230 55 0 55 0 0 -90z m760 45 l0 -45 -95 0 -95 0 0 -45 0
-45 80 0 80 0 0 -45 0 -45 -80 0 -80 0 0 -50 0 -50 100 0 100 0 0 -45 0 -45
-155 0 -155 0 0 230 0 230 150 0 150 0 0 -45z m464 31 c52 -22 76 -60 76 -123
0 -62 -11 -89 -48 -120 l-25 -21 50 -91 51 -91 -64 0 -63 0 -43 80 c-38 70
-46 80 -70 80 l-28 0 0 -80 0 -80 -55 0 -55 0 0 230 0 230 120 0 c80 0 132 -5
154 -14z"/>
<path d="M2810 2285 l0 -108 66 6 c101 8 145 52 130 133 -9 46 -40 64 -125 71
l-71 6 0 -108z"/>
<path d="M2052 1238 c-6 -29 -14 -63 -18 -75 -6 -21 -3 -23 36 -23 39 0 42 2
36 23 -3 12 -11 46 -17 75 -7 28 -15 52 -19 52 -3 0 -11 -24 -18 -52z"/>
<path d="M4060 1250 c0 -60 0 -60 29 -60 36 0 83 17 93 33 4 7 8 24 8 39 0 34
-24 48 -84 48 l-46 0 0 -60z"/>
</g>
</svg>
